<svg xmlns="http://www.w3.org/2000/svg" viewBox="0 0 26.458333 26.458334" height="100" width="100">
  <g fill="currentColor" stroke="currentColor" stroke-width=".5">
    <path d="M.638 21.934c0 .554.446 1 1 1h5.884c.554 0 1-.446 1-1v-6.059H3.214l2.59-2.646-2.59-2.646h5.306V4.525c0-.554-.445-1-1-1H1.639c-.554 0-1 .446-1 1zM17.408 18.759c0 .554.446 1 1 1h6.412c.554 0 1-.446 1-1V4.525c0-.554-.446-1-1-1h-6.412c-.554 0-1 .446-1 1v6.058h2.715l2.59 2.646-2.59 2.646h-2.715z"/>
    <rect transform="rotate(-90)" ry=".802" y="9.755" x="-16.663" height="6.42" width="13.198" fill="none" stroke-width=".379"/>
  </g>
  <path d="M1.57 15.614l2.592-2.385-2.591-2.385h20.726l2.59 2.385-2.59 2.385z" opacity=".7" fill="currentColor"/>
</svg>
